
<svg version="1.1" baseProfile="basic" id="Layer_1"
	 xmlns="http://www.w3.org/2000/svg" xmlns:xlink="http://www.w3.org/1999/xlink" x="0px" y="0px" viewBox="0 0 64 64"
	 xml:space="preserve">
<path d="M36.793,45.207c1.104,0,2,0.896,2,2C38.793,50.953,35.746,54,32,54s-6.793-3.047-6.793-6.793c0-1.104,0.896-2,2-2
	s2,0.896,2,2C29.207,48.747,30.46,50,32,50s2.793-1.253,2.793-2.793C34.793,46.102,35.688,45.207,36.793,45.207z"/>
<path d="M51.509,39.699C51.764,39.954,54,42.294,54,46c0,1.104-0.896,2-2,2H12c-1.104,0-2-0.896-2-2
	c0-3.706,2.236-6.046,2.491-6.301c0.165-0.166,0.359-0.301,0.571-0.399c3.056-1.417,3.604-9.965,3.897-14.557
	c0.779-7.786,7.072-10.934,10.68-11.658C28.307,11.604,29.662,10,32,10s3.693,1.604,4.36,3.084
	c3.607,0.723,9.899,3.862,10.674,11.586c0.3,4.664,0.848,13.212,3.903,14.629C51.149,39.398,51.344,39.534,51.509,39.699z
	 M14.414,44h35.172c-0.252-0.599-0.561-1.043-0.748-1.283c-4.448-2.466-5.281-9.785-5.79-17.719
	c-0.737-7.348-8.116-8.084-8.19-8.084c-0.973,0-1.794-0.723-1.971-1.658C32.767,14.62,32.603,14,32,14
	c-0.604,0-0.768,0.66-0.891,1.275c-0.175,0.881-1.01,1.639-1.967,1.639c-0.074,0-7.453,0.736-8.196,8.156
	c-0.503,7.865-1.336,15.184-5.787,17.648C14.977,42.953,14.667,43.397,14.414,44z"/>
</svg>